<svg xmlns="http://www.w3.org/2000/svg" viewBox="0 0 640 640" role="img" aria-labelledby="title">
  <title id="title">Lotus sigil</title>
  <defs>
    <radialGradient id="g" cx="50%" cy="48%" r="50%">
      <stop offset="0" stop-color="#f4a51c"/>
      <stop offset=".58" stop-color="#b83b24"/>
      <stop offset="1" stop-color="#171512"/>
    </radialGradient>
  </defs>
  <rect width="640" height="640" fill="none"/>
  <g fill="none" stroke="url(#g)" stroke-width="18" stroke-linecap="round" stroke-linejoin="round">
    <path d="M320 116c56 54 82 111 82 172s-27 108-82 143c-55-35-82-82-82-143s26-118 82-172Z"/>
    <path d="M201 199c73 13 123 44 151 94s28 104 0 162c-65-2-114-24-145-67s-33-106-6-189Z"/>
    <path d="M439 199c-73 13-123 44-151 94s-28 104 0 162c65-2 114-24 145-67s33-106 6-189Z"/>
    <path d="M123 321c81-14 145-3 191 33s68 85 67 148c-62 19-117 13-164-17s-78-85-94-164Z"/>
    <path d="M517 321c-81-14-145-3-191 33s-68 85-67 148c62 19 117 13 164-17s78-85 94-164Z"/>
    <path d="M175 501h290"/>
    <path d="M236 554h168"/>
  </g>
</svg>
